mtllib left_inner_knuckle_collisions_robotiq_arg2f_140_inner_knuckle_mesh.mtl
v 0.016950003802776337 0.03250901773571968 -0.0067228758707642555
v 0.013901217840611935 0.03711143881082535 -0.0068250070326030254
v 0.019450001418590546 0.09984227269887924 -0.008217048831284046
v 0.016950003802776337 0.03250901773571968 -0.0067228758707642555
v 0.019450001418590546 -0.0001331119128735736 -0.005998523440212011
v 0.013901217840611935 0.03711143881082535 -0.0068250070326030254
v 0.019450001418590546 0.09984227269887924 -0.008217048831284046
v 0.019450001418590546 -0.0001331119128735736 -0.005998523440212011
v 0.016950003802776337 0.03250901773571968 -0.0067228758707642555
v -0.013550006784498692 0.1001117154955864 -0.004714805632829666
v -0.012049996294081211 0.09984227269887924 -0.008217048831284046
v -0.019550003111362457 0.007092697080224752 -0.006158869247883558
v -0.014001213945448399 0.03711143881082535 -0.0068250070326030254
v -0.012049996294081211 0.09984227269887924 -0.008217048831284046
v -0.007121280767023563 0.08844507485628128 -0.007964137010276318
v -0.01705000549554825 0.03250901773571968 -0.0067228758707642555
v -0.014001213945448399 0.03711143881082535 -0.0068250070326030254
v -0.019550003111362457 -0.0001331119128735736 -0.005998523440212011
v -0.01705000549554825 0.03250901773571968 -0.0067228758707642555
v -0.012049996294081211 0.09984227269887924 -0.008217048831284046
v -0.014001213945448399 0.03711143881082535 -0.0068250070326030254
v -0.01705000549554825 0.03250901773571968 -0.0067228758707642555
v -0.019550003111362457 -0.0001331119128735736 -0.005998523440212011
v -0.019550003111362457 0.007092697080224752 -0.006158869247883558
v -0.012049996294081211 0.09984227269887924 -0.008217048831284046
v -0.01705000549554825 0.03250901773571968 -0.0067228758707642555
v -0.019550003111362457 0.007092697080224752 -0.006158869247883558
v -0.012049996294081211 0.10214795172214508 -0.007811377756297588
v -0.012049996294081211 0.09984227269887924 -0.008217048831284046
v -0.013550006784498692 0.1001117154955864 -0.004714805632829666
v 0.0070212846621870995 0.08844507485628128 -0.007964137010276318
v 0.019450001418590546 0.09984227269887924 -0.008217048831284046
v 0.013901217840611935 0.03711143881082535 -0.0068250070326030254
v -0.012049996294081211 0.10010850429534912 0.0037799992132931948
v -0.012749993242323399 0.10075633227825165 0.0026188420597463846
v -0.019550003111362457 0.0073589179664850235 0.005838178098201752
v -0.010499999858438969 0.02969711646437645 0.005342477932572365
v -0.012049996294081211 0.10010850429534912 0.0037799992132931948
v -0.019550003111362457 0.0073589179664850235 0.005838178098201752
v -0.013550006784498692 0.10247166454792023 -0.0020821960642933846
v -0.019550003111362457 0.0073589179664850235 0.005838178098201752
v -0.013550006784498692 0.10206906497478485 -0.000852320808917284
v -0.013550006784498692 0.10247166454792023 -0.0020821960642933846
v -0.019550003111362457 0.007092697080224752 -0.006158869247883558
v -0.019550003111362457 0.0073589179664850235 0.005838178098201752
v -0.013550006784498692 0.10247166454792023 -0.0020821960642933846
v -0.013550006784498692 0.10220539569854736 -0.003348601283505559
v -0.019550003111362457 0.007092697080224752 -0.006158869247883558
v -0.013550006784498692 0.10134159028530121 -0.004312203265726566
v -0.013550006784498692 0.1001117154955864 -0.004714805632829666
v -0.019550003111362457 0.007092697080224752 -0.006158869247883558
v -0.019550003111362457 0.007092697080224752 -0.006158869247883558
v -0.013550006784498692 0.10220539569854736 -0.003348601283505559
v -0.013550006784498692 0.10134159028530121 -0.004312203265726566
v -0.013550006784498692 0.10134159028530121 -0.004312203265726566
v -0.012049996294081211 0.10214795172214508 -0.007811377756297588
v -0.013550006784498692 0.1001117154955864 -0.004714805632829666
v -0.019550003111362457 0.0073589179664850235 0.005838178098201752
v -0.013550006784498692 0.1011054590344429 1.1481241017463617e-05
v -0.013550006784498692 0.10206906497478485 -0.000852320808917284
v -0.013550006784498692 0.1011054590344429 1.1481241017463617e-05
v -0.019550003111362457 0.0073589179664850235 0.005838178098201752
v -0.012749993242323399 0.10075633227825165 0.0026188420597463846
v -0.012749993242323399 0.10201268643140793 0.0021827660966664553
v -0.013550006784498692 0.10206906497478485 -0.000852320808917284
v -0.013550006784498692 0.1011054590344429 1.1481241017463617e-05
v -0.013550006784498692 0.10134159028530121 -0.004312203265726566
v -0.012049996294081211 0.10412285476922989 -0.006554245948791504
v -0.012049996294081211 0.10214795172214508 -0.007811377756297588
v -0.012049996294081211 0.10412285476922989 -0.006554245948791504
v -0.013550006784498692 0.10220539569854736 -0.003348601283505559
v -0.012049996294081211 0.10546635836362839 -0.004637039266526699
v -0.012049996294081211 0.10412285476922989 -0.006554245948791504
v -0.013550006784498692 0.10134159028530121 -0.004312203265726566
v -0.013550006784498692 0.10220539569854736 -0.003348601283505559
v -0.012749993242323399 0.10176309198141098 0.0023437263444066048
v -0.013550006784498692 0.1011054590344429 1.1481241017463617e-05
v -0.012749993242323399 0.10075633227825165 0.0026188420597463846
v -0.012749993242323399 0.10176309198141098 0.0023437263444066048
v -0.012749993242323399 0.10201268643140793 0.0021827660966664553
v -0.013550006784498692 0.1011054590344429 1.1481241017463617e-05
v -0.013550006784498692 0.10206906497478485 -0.000852320808917284
v -0.012749993242323399 0.10201268643140793 0.0021827660966664553
v -0.012049996294081211 0.10431110858917236 0.001928946701809764
v 0.010399996303021908 0.02969711646437645 0.005342477932572365
v 0.019450001418590546 0.0073589179664850235 0.005838178098201752
v 0.019450001418590546 0.10010850429534912 0.0037799992132931948
v -0.012049996294081211 0.10239390283823013 0.003272448433563113
v -0.012749993242323399 0.10075633227825165 0.0026188420597463846
v -0.012049996294081211 0.10010850429534912 0.0037799992132931948
v -0.012049996294081211 0.10239390283823013 0.003272448433563113
v -0.012749993242323399 0.10176309198141098 0.0023437263444066048
v -0.012749993242323399 0.10075633227825165 0.0026188420597463846
v -0.012749993242323399 0.10201268643140793 0.0021827660966664553
v -0.012749993242323399 0.10176309198141098 0.0023437263444066048
v -0.012049996294081211 0.10239390283823013 0.003272448433563113
v -0.012049996294081211 0.10239390283823013 0.003272448433563113
v -0.012049996294081211 0.10431110858917236 0.001928946701809764
v -0.012749993242323399 0.10201268643140793 0.0021827660966664553
v -0.012049996294081211 0.10597391426563263 -0.0023516372311860323
v -0.012049996294081211 0.10546635836362839 -0.004637039266526699
v -0.013550006784498692 0.10220539569854736 -0.003348601283505559
v -0.013550006784498692 0.10220539569854736 -0.003348601283505559
v -0.013550006784498692 0.10247166454792023 -0.0020821960642933846
v -0.012049996294081211 0.10597391426563263 -0.0023516372311860323
v -0.013550006784498692 0.10206906497478485 -0.000852320808917284
v -0.012049996294081211 0.10431110858917236 0.001928946701809764
v -0.012049996294081211 0.10556823760271072 -4.596900907927193e-05
v -0.012049996294081211 0.10556823760271072 -4.596900907927193e-05
v -0.013550006784498692 0.10247166454792023 -0.0020821960642933846
v -0.013550006784498692 0.10206906497478485 -0.000852320808917284
v -0.012049996294081211 0.10556823760271072 -4.596900907927193e-05
v -0.012049996294081211 0.10597391426563263 -0.0023516372311860323
v -0.013550006784498692 0.10247166454792023 -0.0020821960642933846
v -0.019550003111362457 -0.0001331119128735736 -0.005998523440212011
v -0.014001213945448399 0.03711143881082535 -0.0068250070326030254
v 0.013901217840611935 0.03711143881082535 -0.0068250070326030254
v 0.019450001418590546 -0.0001331119128735736 -0.005998523440212011
v -0.019550003111362457 -0.0001331119128735736 -0.005998523440212011
v 0.013901217840611935 0.03711143881082535 -0.0068250070326030254
v 0.0070212846621870995 0.08844507485628128 -0.007964137010276318
v -0.007121280767023563 0.08844507485628128 -0.007964137010276318
v -0.012049996294081211 0.09984227269887924 -0.008217048831284046
v 0.0070212846621870995 0.08844507485628128 -0.007964137010276318
v -0.012049996294081211 0.09984227269887924 -0.008217048831284046
v 0.019450001418590546 0.09984227269887924 -0.008217048831284046
v 0.0070212846621870995 0.08844507485628128 -0.007964137010276318
v 0.013901217840611935 0.03711143881082535 -0.0068250070326030254
v -0.014001213945448399 0.03711143881082535 -0.0068250070326030254
v -0.014001213945448399 0.03711143881082535 -0.0068250070326030254
v -0.007121280767023563 0.08844507485628128 -0.007964137010276318
v 0.0070212846621870995 0.08844507485628128 -0.007964137010276318
v -0.019550003111362457 -0.004335722420364618 -0.00414747279137373
v 0.019450001418590546 -0.004335722420364618 -0.00414747279137373
v -0.019550003111362457 -0.005592852830886841 -0.0021725569386035204
v 0.019450001418590546 -0.004335722420364618 -0.00414747279137373
v 0.019450001418590546 -0.005592852830886841 -0.0021725569386035204
v -0.019550003111362457 -0.005592852830886841 -0.0021725569386035204
v 0.019450001418590546 0.0073589179664850235 0.005838178098201752
v -0.019550003111362457 0.0073589179664850235 0.005838178098201752
v -0.019550003111362457 0.00013311291695572436 0.005998522974550724
v 0.019450001418590546 0.00013311291695572436 0.005998522974550724
v 0.019450001418590546 0.0073589179664850235 0.005838178098201752
v -0.019550003111362457 0.00013311291695572436 0.005998522974550724
v -0.019550003111362457 -0.0021725574042648077 0.0055928523652255535
v 0.019450001418590546 -0.0021725574042648077 0.0055928523652255535
v 0.019450001418590546 0.00013311291695572436 0.005998522974550724
v -0.019550003111362457 -0.0021725574042648077 0.0055928523652255535
v 0.019450001418590546 0.00013311291695572436 0.005998522974550724
v -0.019550003111362457 0.00013311291695572436 0.005998522974550724
v 0.019450001418590546 -0.002418515970930457 -0.005490973126143217
v -0.019550003111362457 -0.0001331119128735736 -0.005998523440212011
v 0.019450001418590546 -0.0001331119128735736 -0.005998523440212011
v 0.019450001418590546 -0.002418515970930457 -0.005490973126143217
v -0.019550003111362457 -0.002418515970930457 -0.005490973126143217
v -0.019550003111362457 -0.0001331119128735736 -0.005998523440212011
v -0.019550003111362457 -0.004335722420364618 -0.00414747279137373
v -0.019550003111362457 -0.002418515970930457 -0.005490973126143217
v 0.019450001418590546 -0.002418515970930457 -0.005490973126143217
v 0.019450001418590546 -0.002418515970930457 -0.005490973126143217
v 0.019450001418590546 -0.004335722420364618 -0.00414747279137373
v -0.019550003111362457 -0.004335722420364618 -0.00414747279137373
v 0.019450001418590546 0.09984227269887924 -0.008217048831284046
v -0.012049996294081211 0.09984227269887924 -0.008217048831284046
v 0.019450001418590546 0.10214795172214508 -0.007811377756297588
v -0.012049996294081211 0.10214795172214508 -0.007811377756297588
v 0.019450001418590546 0.10214795172214508 -0.007811377756297588
v -0.012049996294081211 0.09984227269887924 -0.008217048831284046
v -0.012049996294081211 0.10412285476922989 -0.006554245948791504
v 0.019450001418590546 0.10412285476922989 -0.006554245948791504
v 0.019450001418590546 0.10214795172214508 -0.007811377756297588
v -0.012049996294081211 0.10412285476922989 -0.006554245948791504
v 0.019450001418590546 0.10214795172214508 -0.007811377756297588
v -0.012049996294081211 0.10214795172214508 -0.007811377756297588
v 0.019450001418590546 0.10412285476922989 -0.006554245948791504
v -0.012049996294081211 0.10412285476922989 -0.006554245948791504
v 0.019450001418590546 0.10546635836362839 -0.004637039266526699
v 0.019450001418590546 0.10546635836362839 -0.004637039266526699
v -0.012049996294081211 0.10412285476922989 -0.006554245948791504
v -0.012049996294081211 0.10546635836362839 -0.004637039266526699
v -0.012049996294081211 0.10010850429534912 0.0037799992132931948
v -0.010499999858438969 0.02969711646437645 0.005342477932572365
v 0.010399996303021908 0.02969711646437645 0.005342477932572365
v 0.010399996303021908 0.02969711646437645 0.005342477932572365
v 0.019450001418590546 0.10010850429534912 0.0037799992132931948
v -0.012049996294081211 0.10010850429534912 0.0037799992132931948
v -0.019550003111362457 0.0073589179664850235 0.005838178098201752
v 0.019450001418590546 0.0073589179664850235 0.005838178098201752
v 0.010399996303021908 0.02969711646437645 0.005342477932572365
v 0.010399996303021908 0.02969711646437645 0.005342477932572365
v -0.010499999858438969 0.02969711646437645 0.005342477932572365
v -0.019550003111362457 0.0073589179664850235 0.005838178098201752
v -0.019550003111362457 -0.005490974523127079 0.002418513409793377
v -0.019550003111362457 0.00013311291695572436 0.005998522974550724
v -0.019550003111362457 0.0073589179664850235 0.005838178098201752
v -0.019550003111362457 0.007092697080224752 -0.006158869247883558
v -0.019550003111362457 -0.0001331119128735736 -0.005998523440212011
v -0.019550003111362457 -0.005490974523127079 0.002418513409793377
v -0.019550003111362457 -0.005490974523127079 0.002418513409793377
v -0.019550003111362457 0.0073589179664850235 0.005838178098201752
v -0.019550003111362457 0.007092697080224752 -0.006158869247883558
v -0.019550003111362457 -0.005490974523127079 0.002418513409793377
v -0.019550003111362457 -0.002418515970930457 -0.005490973126143217
v -0.019550003111362457 -0.004335722420364618 -0.00414747279137373
v -0.019550003111362457 -0.0021725574042648077 0.0055928523652255535
v -0.019550003111362457 -0.005490974523127079 0.002418513409793377
v -0.019550003111362457 -0.004147474188357592 0.004335720092058182
v -0.019550003111362457 -0.005998524837195873 0.00013311141810845584
v -0.019550003111362457 -0.005490974523127079 0.002418513409793377
v -0.019550003111362457 -0.005592852830886841 -0.0021725569386035204
v -0.019550003111362457 -0.005490974523127079 0.002418513409793377
v -0.019550003111362457 -0.004335722420364618 -0.00414747279137373
v -0.019550003111362457 -0.005592852830886841 -0.0021725569386035204
v -0.019550003111362457 -0.005490974523127079 0.002418513409793377
v -0.019550003111362457 -0.0001331119128735736 -0.005998523440212011
v -0.019550003111362457 -0.002418515970930457 -0.005490973126143217
v -0.019550003111362457 -0.005490974523127079 0.002418513409793377
v -0.019550003111362457 -0.0021725574042648077 0.0055928523652255535
v -0.019550003111362457 0.00013311291695572436 0.005998522974550724
v 0.019450001418590546 -0.004147474188357592 0.004335720092058182
v -0.019550003111362457 -0.0021725574042648077 0.0055928523652255535
v -0.019550003111362457 -0.004147474188357592 0.004335720092058182
v 0.019450001418590546 -0.0021725574042648077 0.0055928523652255535
v -0.019550003111362457 -0.0021725574042648077 0.0055928523652255535
v 0.019450001418590546 -0.004147474188357592 0.004335720092058182
v 0.019450001418590546 -0.004147474188357592 0.004335720092058182
v -0.019550003111362457 -0.004147474188357592 0.004335720092058182
v -0.019550003111362457 -0.005490974523127079 0.002418513409793377
v 0.019450001418590546 -0.004147474188357592 0.004335720092058182
v -0.019550003111362457 -0.005490974523127079 0.002418513409793377
v 0.019450001418590546 -0.005490974523127079 0.002418513409793377
v 0.019450001418590546 0.00013311291695572436 0.005998522974550724
v 0.019450001418590546 -0.0021725574042648077 0.0055928523652255535
v 0.019450001418590546 -0.005998524837195873 0.00013311141810845584
v 0.019450001418590546 -0.005998524837195873 0.00013311141810845584
v 0.019450001418590546 -0.0001331119128735736 -0.005998523440212011
v 0.019450001418590546 0.09984227269887924 -0.008217048831284046
v 0.019450001418590546 0.10431110858917236 0.001928946701809764
v 0.019450001418590546 0.10239390283823013 0.003272448433563113
v 0.019450001418590546 -0.005998524837195873 0.00013311141810845584
v 0.019450001418590546 -0.005998524837195873 0.00013311141810845584
v 0.019450001418590546 0.10214795172214508 -0.007811377756297588
v 0.019450001418590546 0.10412285476922989 -0.006554245948791504
v 0.019450001418590546 -0.005998524837195873 0.00013311141810845584
v 0.019450001418590546 0.10556823760271072 -4.596900907927193e-05
v 0.019450001418590546 0.10431110858917236 0.001928946701809764
v 0.019450001418590546 -0.005998524837195873 0.00013311141810845584
v 0.019450001418590546 0.0073589179664850235 0.005838178098201752
v 0.019450001418590546 0.00013311291695572436 0.005998522974550724
v 0.019450001418590546 -0.005592852830886841 -0.0021725569386035204
v 0.019450001418590546 -0.004335722420364618 -0.00414747279137373
v 0.019450001418590546 -0.005998524837195873 0.00013311141810845584
v 0.019450001418590546 -0.004335722420364618 -0.00414747279137373
v 0.019450001418590546 -0.002418515970930457 -0.005490973126143217
v 0.019450001418590546 -0.005998524837195873 0.00013311141810845584
v 0.019450001418590546 0.10412285476922989 -0.006554245948791504
v 0.019450001418590546 0.10546635836362839 -0.004637039266526699
v 0.019450001418590546 -0.005998524837195873 0.00013311141810845584
v 0.019450001418590546 0.10010850429534912 0.0037799992132931948
v 0.019450001418590546 0.0073589179664850235 0.005838178098201752
v 0.019450001418590546 -0.005998524837195873 0.00013311141810845584
v 0.019450001418590546 -0.005998524837195873 0.00013311141810845584
v 0.019450001418590546 -0.004147474188357592 0.004335720092058182
v 0.019450001418590546 -0.005490974523127079 0.002418513409793377
v 0.019450001418590546 -0.005998524837195873 0.00013311141810845584
v 0.019450001418590546 -0.002418515970930457 -0.005490973126143217
v 0.019450001418590546 -0.0001331119128735736 -0.005998523440212011
v 0.019450001418590546 0.09984227269887924 -0.008217048831284046
v 0.019450001418590546 0.10214795172214508 -0.007811377756297588
v 0.019450001418590546 -0.005998524837195873 0.00013311141810845584
v 0.019450001418590546 -0.005998524837195873 0.00013311141810845584
v 0.019450001418590546 0.10546635836362839 -0.004637039266526699
v 0.019450001418590546 0.10597391426563263 -0.0023516372311860323
v 0.019450001418590546 -0.005998524837195873 0.00013311141810845584
v 0.019450001418590546 0.10239390283823013 0.003272448433563113
v 0.019450001418590546 0.10010850429534912 0.0037799992132931948
v 0.019450001418590546 0.10597391426563263 -0.0023516372311860323
v 0.019450001418590546 0.10556823760271072 -4.596900907927193e-05
v 0.019450001418590546 -0.005998524837195873 0.00013311141810845584
v 0.019450001418590546 -0.0021725574042648077 0.0055928523652255535
v 0.019450001418590546 -0.004147474188357592 0.004335720092058182
v 0.019450001418590546 -0.005998524837195873 0.00013311141810845584
v 0.019450001418590546 -0.005998524837195873 0.00013311141810845584
v -0.019550003111362457 -0.005998524837195873 0.00013311141810845584
v -0.019550003111362457 -0.005592852830886841 -0.0021725569386035204
v 0.019450001418590546 -0.005998524837195873 0.00013311141810845584
v -0.019550003111362457 -0.005592852830886841 -0.0021725569386035204
v 0.019450001418590546 -0.005592852830886841 -0.0021725569386035204
v 0.019450001418590546 -0.005998524837195873 0.00013311141810845584
v -0.019550003111362457 -0.005490974523127079 0.002418513409793377
v -0.019550003111362457 -0.005998524837195873 0.00013311141810845584
v 0.019450001418590546 -0.005490974523127079 0.002418513409793377
v -0.019550003111362457 -0.005490974523127079 0.002418513409793377
v 0.019450001418590546 -0.005998524837195873 0.00013311141810845584
v -0.012049996294081211 0.10239390283823013 0.003272448433563113
v 0.019450001418590546 0.10010850429534912 0.0037799992132931948
v 0.019450001418590546 0.10239390283823013 0.003272448433563113
v -0.012049996294081211 0.10239390283823013 0.003272448433563113
v -0.012049996294081211 0.10010850429534912 0.0037799992132931948
v 0.019450001418590546 0.10010850429534912 0.0037799992132931948
v -0.012049996294081211 0.10239390283823013 0.003272448433563113
v 0.019450001418590546 0.10239390283823013 0.003272448433563113
v 0.019450001418590546 0.10431110858917236 0.001928946701809764
v -0.012049996294081211 0.10239390283823013 0.003272448433563113
v 0.019450001418590546 0.10431110858917236 0.001928946701809764
v -0.012049996294081211 0.10431110858917236 0.001928946701809764
v -0.012049996294081211 0.10597391426563263 -0.0023516372311860323
v 0.019450001418590546 0.10597391426563263 -0.0023516372311860323
v 0.019450001418590546 0.10546635836362839 -0.004637039266526699
v -0.012049996294081211 0.10597391426563263 -0.0023516372311860323
v 0.019450001418590546 0.10546635836362839 -0.004637039266526699
v -0.012049996294081211 0.10546635836362839 -0.004637039266526699
v -0.012049996294081211 0.10556823760271072 -4.596900907927193e-05
v 0.019450001418590546 0.10431110858917236 0.001928946701809764
v 0.019450001418590546 0.10556823760271072 -4.596900907927193e-05
v -0.012049996294081211 0.10556823760271072 -4.596900907927193e-05
v -0.012049996294081211 0.10431110858917236 0.001928946701809764
v 0.019450001418590546 0.10431110858917236 0.001928946701809764
v -0.012049996294081211 0.10556823760271072 -4.596900907927193e-05
v 0.019450001418590546 0.10556823760271072 -4.596900907927193e-05
v 0.019450001418590546 0.10597391426563263 -0.0023516372311860323
v -0.012049996294081211 0.10597391426563263 -0.0023516372311860323
v -0.012049996294081211 0.10556823760271072 -4.596900907927193e-05
v 0.019450001418590546 0.10597391426563263 -0.0023516372311860323
usemtl DefaultMaterial_0
f 1 2 3
f 4 5 6
f 7 8 9
f 10 11 12
f 13 14 15
f 16 17 18
f 19 20 21
f 22 23 24
f 25 26 27
f 28 29 30
f 31 32 33
f 34 35 36
f 37 38 39
f 40 41 42
f 43 44 45
f 46 47 48
f 49 50 51
f 52 53 54
f 55 56 57
f 58 59 60
f 61 62 63
f 64 65 66
f 67 68 69
f 70 71 72
f 73 74 75
f 76 77 78
f 79 80 81
f 82 83 84
f 85 86 87
f 88 89 90
f 91 92 93
f 94 95 96
f 97 98 99
f 100 101 102
f 103 104 105
f 106 107 108
f 109 110 111
f 112 113 114
f 115 116 117
f 118 119 120
f 121 122 123
f 124 125 126
f 127 128 129
f 130 131 132
f 133 134 135
f 136 137 138
f 139 140 141
f 142 143 144
f 145 146 147
f 148 149 150
f 151 152 153
f 154 155 156
f 157 158 159
f 160 161 162
f 163 164 165
f 166 167 168
f 169 170 171
f 172 173 174
f 175 176 177
f 178 179 180
f 181 182 183
f 184 185 186
f 187 188 189
f 190 191 192
f 193 194 195
f 196 197 198
f 199 200 201
f 202 203 204
f 205 206 207
f 208 209 210
f 211 212 213
f 214 215 216
f 217 218 219
f 220 221 222
f 223 224 225
f 226 227 228
f 229 230 231
f 232 233 234
f 235 236 237
f 238 239 240
f 241 242 243
f 244 245 246
f 247 248 249
f 250 251 252
f 253 254 255
f 256 257 258
f 259 260 261
f 262 263 264
f 265 266 267
f 268 269 270
f 271 272 273
f 274 275 276
f 277 278 279
f 280 281 282
f 283 284 285
f 286 287 288
f 289 290 291
f 292 293 294
f 295 296 297
f 298 299 300
f 301 302 303
f 304 305 306
f 307 308 309
f 310 311 312
f 313 314 315
f 316 317 318
f 319 320 321
f 322 323 324
