mtllib left_outer_knuckle_collisions_robotiq_arg2f_140_outer_finger_mesh.mtl
v -0.013700003735721111 0.0815084725618363 -0.03070811927318575
v -0.01374999713152647 -0.00024692917941138165 -0.0024877761024981754
v -0.01374999713152647 0.0010300395078957087 -0.00227794097736478
v 0.013249997980892658 0.00024692810256965475 0.0024877754040062445
v 0.01179999578744173 0.0013006514636799702 0.00585733121261001
v 0.01179999578744173 -0.0010398620506748564 0.0059092054143548055
v 0.01179999578744173 0.0013006514636799702 0.00585733121261001
v 0.013300006277859211 0.0820023268461228 -0.025732569396495836
v 0.01179999578744173 0.08331030607223516 -0.022425323724746718
v 0.013300006277859211 0.0820023268461228 -0.025732569396495836
v 0.01179999578744173 0.0013006514636799702 0.00585733121261001
v 0.013249997980892658 0.00024692810256965475 0.0024877754040062445
v 0.013249997980892658 0.00024692810256965475 0.0024877754040062445
v 0.01179999578744173 -0.0010398620506748564 0.0059092054143548055
v 0.013249997980892658 -0.001030040672048927 0.002277940278872849
v 0.01179999578744173 0.08020050078630453 -0.034015364944934866
v 0.013300006277859211 0.0815084725618363 -0.03070811927318575
v 0.01179999578744173 0.018768036738038077 -0.01753196492791177
v 0.013300006277859211 0.08029766380786901 -0.030251357704401037
v 0.013249997980892658 -0.00024692917941138165 -0.0024877761024981754
v 0.013300006277859211 0.0815084725618363 -0.03070811927318575
v 0.013249997980892658 -0.00024692917941138165 -0.0024877761024981754
v 0.013300006277859211 0.08029766380786901 -0.030251357704401037
v 0.013249997980892658 -0.0014577334513887772 -0.002031012671068312
v -0.012200000695884228 0.0013006514636799702 0.00585733121261001
v -0.012200000695884228 0.08331030607223516 -0.022425323724746718
v -0.01374999713152647 0.00024692810256965475 0.0024877754040062445
v -0.013700003735721111 0.0820023268461228 -0.025732569396495836
v -0.01374999713152647 0.00024692810256965475 0.0024877754040062445
v -0.012200000695884228 0.08331030607223516 -0.022425323724746718
v -0.01374999713152647 0.00024692810256965475 0.0024877754040062445
v -0.012200000695884228 -0.0010398620506748564 0.0059092054143548055
v -0.012200000695884228 0.0013006514636799702 0.00585733121261001
v 0.013249997980892658 -0.001030040672048927 0.002277940278872849
v 0.01179999578744173 -0.0010398620506748564 0.0059092054143548055
v 0.01179999578744173 -0.0032220601569861195 0.00506145786494017
v 0.013249997980892658 -0.001030040672048927 0.002277940278872849
v 0.01179999578744173 -0.0032220601569861195 0.00506145786494017
v 0.013249997980892658 -0.0020310136023908867 0.001457733567804099
v 0.01179999578744173 -0.0049137296155095135 0.0034431463573128007
v 0.013249997980892658 -0.0020310136023908867 0.001457733567804099
v 0.01179999578744173 -0.0032220601569861195 0.00506145786494017
v 0.0124000059440732 -0.004614661447703842 0.0016476974124088894
v 0.01179999578744173 -0.00585733121261001 0.0013006505323573956
v 0.0124000059440732 -0.004858938511461023 0.0006330189644359057
v 0.0124000059440732 -0.004614661447703842 0.0016476974124088894
v 0.01179999578744173 -0.0049137296155095135 0.0034431463573128007
v 0.01179999578744173 -0.00585733121261001 0.0013006505323573956
v 0.012499992735683918 0.08596276491880422 -0.025708744302392023
v 0.013300006277859211 0.08321312814950949 -0.0261893328279257
v 0.013300006277859211 0.08403334021568304 -0.027190303429961222
v 0.013300006277859211 0.0820023268461228 -0.025732569396495836
v 0.013300006277859211 0.08321312814950949 -0.0261893328279257
v 0.01179999578744173 0.08331030607223516 -0.022425323724746718
v 0.01179999578744173 0.08331030607223516 -0.022425323724746718
v 0.013300006277859211 0.08321312814950949 -0.0261893328279257
v 0.01179999578744173 0.08540961146354681 -0.023461479693651217
v 0.013300006277859211 0.08029766380786901 -0.030251357704401037
v 0.013249997980892658 -0.002277942141517998 -0.001030041370540858
v 0.013249997980892658 -0.0014577334513887772 -0.002031012671068312
v -0.012200000695884228 -0.0034431484527885936 -0.004913730081170801
v -0.012200000695884228 -0.0050614541396498715 -0.0032220594584941886
v -0.01374999713152647 -0.0014577334513887772 -0.002031012671068312
v 0.01179999578744173 -0.0034431484527885936 -0.004913730081170801
v 0.01179999578744173 0.006179760675877337 -0.011656687594950206
v 0.013249997980892658 -0.0014577334513887772 -0.002031012671068312
v 0.01179999578744173 0.006179760675877337 -0.011656687594950206
v 0.01179999578744173 0.010137962177395828 -0.014100021682679662
v 0.013249997980892658 -0.0014577334513887772 -0.002031012671068312
v -0.012200000695884228 -0.0010398620506748564 0.0059092054143548055
v -0.01374999713152647 -0.001030040672048927 0.002277940278872849
v -0.012200000695884228 -0.0032220601569861195 0.00506145786494017
v -0.012200000695884228 -0.0010398620506748564 0.0059092054143548055
v -0.01374999713152647 0.00024692810256965475 0.0024877754040062445
v -0.01374999713152647 -0.001030040672048927 0.002277940278872849
v 0.01179999578744173 -0.0049137296155095135 0.0034431463573128007
v 0.0124000059440732 -0.004461388103663924 0.001902086543850602
v 0.013249997980892658 -0.0020310136023908867 0.001457733567804099
v 0.013249997980892658 -0.0020310136023908867 0.001457733567804099
v 0.0124000059440732 -0.004461388103663924 0.001902086543850602
v 0.0124000059440732 -0.004614661447703842 0.0016476974124088894
v 0.0124000059440732 -0.004614661447703842 0.0016476974124088894
v 0.0124000059440732 -0.004461388103663924 0.001902086543850602
v 0.01179999578744173 -0.0049137296155095135 0.0034431463573128007
v 0.012499992735683918 0.08639924228191381 -0.02665675804018976
v 0.012499992735683918 0.08596276491880422 -0.025708744302392023
v 0.013300006277859211 0.08403334021568304 -0.027190303429961222
v 0.01179999578744173 0.08540961146354681 -0.023461479693651217
v 0.012499992735683918 0.08576305210590368 -0.025488920509815233
v 0.012499992735683918 0.08596276491880422 -0.025708744302392023
v 0.012499992735683918 0.08576305210590368 -0.025488920509815233
v 0.013300006277859211 0.08321312814950949 -0.0261893328279257
v 0.012499992735683918 0.08596276491880422 -0.025708744302392023
v 0.013300006277859211 0.08321312814950949 -0.0261893328279257
v 0.012499992735683918 0.08576305210590368 -0.025488920509815233
v 0.01179999578744173 0.08540961146354681 -0.023461479693651217
v -0.013700003735721111 0.08321312814950949 -0.0261893328279257
v -0.013700003735721111 0.0820023268461228 -0.025732569396495836
v -0.012200000695884228 0.08331030607223516 -0.022425323724746718
v 0.007300002034753561 0.06494026631116871 -0.029920781031250974
v 0.01179999578744173 0.08020050078630453 -0.034015364944934866
v 0.01179999578744173 0.018768036738038077 -0.01753196492791177
v -0.007699998561292887 0.06494026631116871 -0.029920781031250974
v -0.012200000695884228 0.018768036738038077 -0.01753196492791177
v -0.012200000695884228 0.08020050078630453 -0.034015364944934866
v -0.013700003735721111 0.0815084725618363 -0.03070811927318575
v -0.012200000695884228 0.08020050078630453 -0.034015364944934866
v -0.012200000695884228 0.018768036738038077 -0.01753196492791177
v -0.012200000695884228 0.08253651857376104 -0.03416928276419642
v -0.012200000695884228 0.08020050078630453 -0.034015364944934866
v -0.013700003735721111 0.0815084725618363 -0.03070811927318575
v 0.01179999578744173 0.08475361019372946 -0.0334175266325474
v 0.01179999578744173 0.08651426434516912 -0.03187454864382746
v 0.013300006277859211 0.08378641307353979 -0.02967807836830618
v 0.01179999578744173 0.08651426434516912 -0.03187454864382746
v 0.012499992735683918 0.08660510927438742 -0.02826842479407789
v 0.013300006277859211 0.08378641307353979 -0.02967807836830618
v 0.013300006277859211 0.08378641307353979 -0.02967807836830618
v 0.012499992735683918 0.08660510927438742 -0.02826842479407789
v 0.013300006277859211 0.0842431709170342 -0.02846727333962919
v 0.013300006277859211 0.0842431709170342 -0.02846727333962919
v 0.012499992735683918 0.08660510927438742 -0.02826842479407789
v 0.012499992735683918 0.086649239063263 -0.02797472663223745
v 0.0124000059440732 -0.004614661447703842 0.0016476974124088894
v 0.013249997980892658 -0.0024877735413610953 0.0002469288592692466
v 0.013249997980892658 -0.0020310136023908867 0.001457733567804099
v 0.0124000059440732 -0.004614661447703842 0.0016476974124088894
v 0.0124000059440732 -0.004858938511461023 0.0006330189644359057
v 0.013249997980892658 -0.0024877735413610953 0.0002469288592692466
v 0.013249997980892658 -0.0024877735413610953 0.0002469288592692466
v 0.013300006277859211 0.0797243863344193 -0.026762610301375406
v 0.013249997980892658 -0.0020310136023908867 0.001457733567804099
v 0.013249997980892658 -0.0020310136023908867 0.001457733567804099
v 0.013300006277859211 0.08072535693645483 -0.0259424038231373
v 0.013249997980892658 -0.001030040672048927 0.002277940278872849
v 0.013300006277859211 0.0797243863344193 -0.026762610301375406
v 0.013300006277859211 0.08072535693645483 -0.0259424038231373
v 0.013249997980892658 -0.0020310136023908867 0.001457733567804099
v 0.013300006277859211 0.08072535693645483 -0.0259424038231373
v 0.013300006277859211 0.0820023268461228 -0.025732569396495836
v 0.013249997980892658 0.00024692810256965475 0.0024877754040062445
v 0.013249997980892658 -0.001030040672048927 0.002277940278872849
v 0.013300006277859211 0.08072535693645483 -0.0259424038231373
v 0.013249997980892658 0.00024692810256965475 0.0024877754040062445
v 0.013300006277859211 0.08029766380786901 -0.030251357704401037
v 0.013300006277859211 0.07947745919227606 -0.029250385239720365
v 0.013249997980892658 -0.002277942141517998 -0.001030041370540858
v 0.013249997980892658 -0.002277942141517998 -0.001030041370540858
v 0.013300006277859211 0.07947745919227606 -0.029250385239720365
v 0.013249997980892658 -0.0024877735413610953 0.0002469288592692466
v -0.012200000695884228 -0.0050614541396498715 -0.0032220594584941886
v -0.012200000695884228 -0.0059092054143548055 -0.0010398591402918107
v -0.01284999679774046 -0.004748245701193813 -0.0009879670105874545
v 0.01179999578744173 -0.0059092054143548055 -0.0010398591402918107
v 0.01179999578744173 -0.0050614541396498715 -0.0032220594584941886
v 0.0124000059440732 -0.004748245701193813 -0.0009879670105874545
v 0.0124000059440732 -0.004748245701193813 -0.0009879670105874545
v 0.01179999578744173 -0.0050614541396498715 -0.0032220594584941886
v 0.013249997980892658 -0.002277942141517998 -0.001030041370540858
v 0.01179999578744173 -0.0034431484527885936 -0.004913730081170801
v 0.013249997980892658 -0.0014577334513887772 -0.002031012671068312
v 0.01179999578744173 -0.0050614541396498715 -0.0032220594584941886
v 0.013249997980892658 -0.002277942141517998 -0.001030041370540858
v 0.01179999578744173 -0.0050614541396498715 -0.0032220594584941886
v 0.013249997980892658 -0.0014577334513887772 -0.002031012671068312
v -0.012200000695884228 0.014353055506944667 -0.01606731489300729
v -0.012200000695884228 0.010137962177395828 -0.014100021682679662
v -0.01374999713152647 -0.0014577334513887772 -0.002031012671068312
v -0.01374999713152647 -0.00024692917941138165 -0.0024877761024981754
v -0.012200000695884228 0.014353055506944667 -0.01606731489300729
v -0.01374999713152647 -0.0014577334513887772 -0.002031012671068312
v -0.013700003735721111 0.0815084725618363 -0.03070811927318575
v -0.012200000695884228 0.018768036738038077 -0.01753196492791177
v -0.012200000695884228 0.014353055506944667 -0.01606731489300729
v -0.013700003735721111 0.0815084725618363 -0.03070811927318575
v -0.012200000695884228 0.014353055506944667 -0.01606731489300729
v -0.01374999713152647 -0.00024692917941138165 -0.0024877761024981754
v 0.01179999578744173 0.010137962177395828 -0.014100021682679662
v 0.01179999578744173 0.014353055506944667 -0.01606731489300729
v 0.013249997980892658 -0.0014577334513887772 -0.002031012671068312
v 0.013249997980892658 -0.0014577334513887772 -0.002031012671068312
v 0.01179999578744173 0.014353055506944667 -0.01606731489300729
v 0.013249997980892658 -0.00024692917941138165 -0.0024877761024981754
v 0.013300006277859211 0.0815084725618363 -0.03070811927318575
v 0.01179999578744173 0.014353055506944667 -0.01606731489300729
v 0.01179999578744173 0.018768036738038077 -0.01753196492791177
v 0.013249997980892658 -0.00024692917941138165 -0.0024877761024981754
v 0.01179999578744173 0.014353055506944667 -0.01606731489300729
v 0.013300006277859211 0.0815084725618363 -0.03070811927318575
v -0.01374999713152647 -0.0014577334513887772 -0.002031012671068312
v -0.012200000695884228 0.006179760675877337 -0.011656687594950206
v -0.012200000695884228 -0.0034431484527885936 -0.004913730081170801
v -0.012200000695884228 0.010137962177395828 -0.014100021682679662
v -0.012200000695884228 0.006179760675877337 -0.011656687594950206
v -0.01374999713152647 -0.0014577334513887772 -0.002031012671068312
v -0.01374999713152647 -0.001030040672048927 0.002277940278872849
v -0.01374999713152647 -0.0020310136023908867 0.001457733567804099
v -0.012200000695884228 -0.0032220601569861195 0.00506145786494017
v 0.01179999578744173 0.08770433813333517 -0.027439231052994745
v 0.012499992735683918 0.0864862129092217 -0.02694386988878252
v 0.012499992735683918 0.086649239063263 -0.02797472663223745
v 0.012499992735683918 0.08639924228191381 -0.02665675804018976
v 0.012499992735683918 0.0864862129092217 -0.02694386988878252
v 0.01179999578744173 0.08770433813333517 -0.027439231052994745
v 0.013300006277859211 0.08403334021568304 -0.027190303429961222
v 0.012499992735683918 0.0864862129092217 -0.02694386988878252
v 0.012499992735683918 0.08639924228191381 -0.02665675804018976
v 0.013300006277859211 0.0842431709170342 -0.02846727333962919
v 0.012499992735683918 0.0864862129092217 -0.02694386988878252
v 0.013300006277859211 0.08403334021568304 -0.027190303429961222
v 0.012499992735683918 0.086649239063263 -0.02797472663223745
v 0.012499992735683918 0.0864862129092217 -0.02694386988878252
v 0.013300006277859211 0.0842431709170342 -0.02846727333962919
v -0.012200000695884228 0.08331030607223516 -0.022425323724746718
v -0.012200000695884228 0.08540961146354681 -0.023461479693651217
v -0.013700003735721111 0.08321312814950949 -0.0261893328279257
v -0.012899997644126415 0.08596276491880422 -0.025708744302392023
v -0.012200000695884228 0.08540961146354681 -0.023461479693651217
v -0.012200000695884228 0.08695258200168615 -0.025222130119800585
v -0.01374999713152647 0.0014577324036508807 0.0020310117397457374
v -0.01374999713152647 0.00024692810256965475 0.0024877754040062445
v -0.013700003735721111 0.0820023268461228 -0.025732569396495836
v -0.013700003735721111 0.08321312814950949 -0.0261893328279257
v -0.01374999713152647 0.0014577324036508807 0.0020310117397457374
v -0.013700003735721111 0.0820023268461228 -0.025732569396495836
v 0.01179999578744173 0.08540961146354681 -0.023461479693651217
v 0.012499992735683918 0.08596276491880422 -0.025708744302392023
v 0.01179999578744173 0.08695258200168615 -0.025222130119800585
v 0.012499992735683918 0.08639924228191381 -0.02665675804018976
v 0.01179999578744173 0.08770433813333517 -0.027439231052994745
v 0.01179999578744173 0.08695258200168615 -0.025222130119800585
v 0.012499992735683918 0.08639924228191381 -0.02665675804018976
v 0.01179999578744173 0.08695258200168615 -0.025222130119800585
v 0.012499992735683918 0.08596276491880422 -0.025708744302392023
v 0.013300006277859211 0.08278543502092367 -0.030498284846544287
v 0.01179999578744173 0.08475361019372946 -0.0334175266325474
v 0.013300006277859211 0.08378641307353979 -0.02967807836830618
v 0.01179999578744173 0.08020050078630453 -0.034015364944934866
v 0.01179999578744173 0.08253651857376104 -0.03416928276419642
v 0.013300006277859211 0.0815084725618363 -0.03070811927318575
v 0.013300006277859211 0.08278543502092367 -0.030498284846544287
v 0.013300006277859211 0.0815084725618363 -0.03070811927318575
v 0.01179999578744173 0.08253651857376104 -0.03416928276419642
v 0.013300006277859211 0.08278543502092367 -0.030498284846544287
v 0.01179999578744173 0.08253651857376104 -0.03416928276419642
v 0.01179999578744173 0.08475361019372946 -0.0334175266325474
v 0.01179999578744173 0.08755041658878332 -0.02977524884045126
v 0.012499992735683918 0.08660510927438742 -0.02826842479407789
v 0.01179999578744173 0.08651426434516912 -0.03187454864382746
v 0.012499992735683918 0.086649239063263 -0.02797472663223745
v 0.01179999578744173 0.08755041658878332 -0.02977524884045126
v 0.01179999578744173 0.08770433813333517 -0.027439231052994745
v 0.012499992735683918 0.08660510927438742 -0.02826842479407789
v 0.01179999578744173 0.08755041658878332 -0.02977524884045126
v 0.012499992735683918 0.086649239063263 -0.02797472663223745
v 0.013249997980892658 -0.0024877735413610953 0.0002469288592692466
v 0.0124000059440732 -0.004858938511461023 0.0006330189644359057
v 0.0124000059440732 -0.004888569470494989 0.0003344864526297899
v 0.01179999578744173 -0.0059092054143548055 -0.0010398591402918107
v 0.0124000059440732 -0.004888569470494989 0.0003344864526297899
v 0.01179999578744173 -0.00585733121261001 0.0013006505323573956
v 0.01179999578744173 -0.00585733121261001 0.0013006505323573956
v 0.0124000059440732 -0.004888569470494989 0.0003344864526297899
v 0.0124000059440732 -0.004858938511461023 0.0006330189644359057
v 0.013249997980892658 -0.002277942141517998 -0.001030041370540858
v 0.0124000059440732 -0.0048485212028026616 -0.0007084113894961779
v 0.0124000059440732 -0.004748245701193813 -0.0009879670105874545
v 0.013249997980892658 -0.0024877735413610953 0.0002469288592692466
v 0.0124000059440732 -0.0048485212028026616 -0.0007084113894961779
v 0.013249997980892658 -0.002277942141517998 -0.001030041370540858
v 0.0124000059440732 -0.004888569470494989 0.0003344864526297899
v 0.0124000059440732 -0.0048485212028026616 -0.0007084113894961779
v 0.013249997980892658 -0.0024877735413610953 0.0002469288592692466
v 0.0124000059440732 -0.004748245701193813 -0.0009879670105874545
v 0.0124000059440732 -0.0048485212028026616 -0.0007084113894961779
v 0.01179999578744173 -0.0059092054143548055 -0.0010398591402918107
v 0.01179999578744173 -0.0059092054143548055 -0.0010398591402918107
v 0.0124000059440732 -0.0048485212028026616 -0.0007084113894961779
v 0.0124000059440732 -0.004888569470494989 0.0003344864526297899
v 0.013249997980892658 -0.0024877735413610953 0.0002469288592692466
v 0.013300006277859211 0.07926762849092489 -0.027973415330052393
v 0.013300006277859211 0.0797243863344193 -0.026762610301375406
v 0.013300006277859211 0.07947745919227606 -0.029250385239720365
v 0.013300006277859211 0.07926762849092489 -0.027973415330052393
v 0.013249997980892658 -0.0024877735413610953 0.0002469288592692466
v -0.012200000695884228 -0.00585733121261001 0.0013006505323573956
v -0.01284999679774046 -0.004888569470494989 0.0003344864526297899
v -0.012200000695884228 -0.0059092054143548055 -0.0010398591402918107
v -0.012200000695884228 0.006179760675877337 -0.011656687594950206
v -0.012200000695884228 0.010137962177395828 -0.014100021682679662
v -0.005200000945478678 0.008744204416871076 -0.01331147179007531
v -0.012200000695884228 -0.0050614541396498715 -0.0032220594584941886
v -0.01374999713152647 -0.002277942141517998 -0.001030041370540858
v -0.01374999713152647 -0.0014577334513887772 -0.002031012671068312
v -0.01284999679774046 -0.004748245701193813 -0.0009879670105874545
v -0.01374999713152647 -0.002277942141517998 -0.001030041370540858
v -0.012200000695884228 -0.0050614541396498715 -0.0032220594584941886
v -0.013700003735721111 0.08321312814950949 -0.0261893328279257
v -0.012899997644126415 0.08576305210590368 -0.025488920509815233
v -0.012899997644126415 0.08596276491880422 -0.025708744302392023
v -0.012899997644126415 0.08576305210590368 -0.025488920509815233
v -0.012200000695884228 0.08540961146354681 -0.023461479693651217
v -0.012899997644126415 0.08596276491880422 -0.025708744302392023
v -0.012200000695884228 0.08540961146354681 -0.023461479693651217
v -0.012899997644126415 0.08576305210590368 -0.025488920509815233
v -0.013700003735721111 0.08321312814950949 -0.0261893328279257
v -0.013700003735721111 0.08321312814950949 -0.0261893328279257
v -0.012899997644126415 0.08596276491880422 -0.025708744302392023
v -0.013700003735721111 0.08403334021568304 -0.027190303429961222
v -0.01374999713152647 0.0014577324036508807 0.0020310117397457374
v -0.013700003735721111 0.08403334021568304 -0.027190303429961222
v -0.01374999713152647 0.0022779412101954235 0.0010300404392182834
v -0.01374999713152647 0.0014577324036508807 0.0020310117397457374
v -0.013700003735721111 0.08321312814950949 -0.0261893328279257
v -0.013700003735721111 0.08403334021568304 -0.027190303429961222
v -0.01374999713152647 0.0022779412101954235 0.0010300404392182834
v -0.013700003735721111 0.08403334021568304 -0.027190303429961222
v -0.01374999713152647 0.0024877726100385206 -0.0002469278697390111
v -0.01374999713152647 0.0024877726100385206 -0.0002469278697390111
v -0.013700003735721111 0.08403334021568304 -0.027190303429961222
v -0.013700003735721111 0.0842431709170342 -0.02846727333962919
v -0.012200000695884228 0.08651426434516912 -0.03187454864382746
v -0.012899997644126415 0.08660510927438742 -0.02826842479407789
v -0.012200000695884228 0.08755041658878332 -0.02977524884045126
v -0.012200000695884228 0.08475361019372946 -0.0334175266325474
v -0.013700003735721111 0.08378641307353979 -0.02967807836830618
v -0.012200000695884228 0.08651426434516912 -0.03187454864382746
v -0.012899997644126415 0.08660510927438742 -0.02826842479407789
v -0.012200000695884228 0.08651426434516912 -0.03187454864382746
v -0.013700003735721111 0.08378641307353979 -0.02967807836830618
v -0.012899997644126415 0.08660510927438742 -0.02826842479407789
v -0.013700003735721111 0.08378641307353979 -0.02967807836830618
v -0.013700003735721111 0.0842431709170342 -0.02846727333962919
v -0.01374999713152647 0.0020310124382376684 -0.0014577343827113518
v -0.013700003735721111 0.08378641307353979 -0.02967807836830618
v -0.01374999713152647 0.0010300395078957087 -0.00227794097736478
v -0.01374999713152647 0.0024877726100385206 -0.0002469278697390111
v -0.013700003735721111 0.08378641307353979 -0.02967807836830618
v -0.01374999713152647 0.0020310124382376684 -0.0014577343827113518
v -0.013700003735721111 0.0842431709170342 -0.02846727333962919
v -0.013700003735721111 0.08378641307353979 -0.02967807836830618
v -0.01374999713152647 0.0024877726100385206 -0.0002469278697390111
v -0.01284999679774046 -0.004748245701193813 -0.0009879670105874545
v -0.012200000695884228 -0.0059092054143548055 -0.0010398591402918107
v -0.01284999679774046 -0.0048485212028026616 -0.0007084113894961779
v -0.01284999679774046 -0.004888569470494989 0.0003344864526297899
v -0.01284999679774046 -0.0048485212028026616 -0.0007084113894961779
v -0.012200000695884228 -0.0059092054143548055 -0.0010398591402918107
v -0.01374999713152647 -0.002277942141517998 -0.001030041370540858
v -0.01284999679774046 -0.004748245701193813 -0.0009879670105874545
v -0.01284999679774046 -0.0048485212028026616 -0.0007084113894961779
v -0.01284999679774046 -0.004614661447703842 0.0016476974124088894
v -0.012200000695884228 -0.00585733121261001 0.0013006505323573956
v -0.012200000695884228 -0.0049137296155095135 0.0034431463573128007
v 0.01179999578744173 0.014353055506944667 -0.01606731489300729
v 0.002427977742627263 0.011480906046926982 -0.014792303554713736
v 0.0016000022878870368 0.011579957790672786 -0.014840847812592994
v 0.01179999578744173 0.014353055506944667 -0.01606731489300729
v 0.01179999578744173 0.010137962177395828 -0.014100021682679662
v 0.002427977742627263 0.011480906046926982 -0.014792303554713736
v 0.0016000022878870368 0.011579957790672786 -0.014840847812592994
v 0.002427977742627263 0.011480906046926982 -0.014792303554713736
v -0.001999999163672328 0.011579957790672786 -0.014840847812592994
v -0.005200000945478678 0.008744204416871076 -0.01331147179007531
v -0.00495641166344285 0.009811700321733959 -0.01392199657857419
v 0.004690950270742178 0.009463840164244182 -0.013727815821766862
v -0.00495641166344285 0.009811700321733959 -0.01392199657857419
v -0.005200000945478678 0.008744204416871076 -0.01331147179007531
v -0.012200000695884228 0.010137962177395828 -0.014100021682679662
v 0.004690950270742178 0.009463840164244182 -0.013727815821766862
v -0.00495641166344285 0.009811700321733959 -0.01392199657857419
v 0.01179999578744173 0.010137962177395828 -0.014100021682679662
v 0.01179999578744173 0.010137962177395828 -0.014100021682679662
v -0.00495641166344285 0.009811700321733959 -0.01392199657857419
v -0.012200000695884228 0.010137962177395828 -0.014100021682679662
v -0.005200000945478678 0.008744204416871076 -0.01331147179007531
v 0.004690950270742178 0.009463840164244182 -0.013727815821766862
v 0.004799996968358755 0.008744204416871076 -0.01331147179007531
v 0.01179999578744173 0.010137962177395828 -0.014100021682679662
v 0.004799996968358755 0.008744204416871076 -0.01331147179007531
v 0.004690950270742178 0.009463840164244182 -0.013727815821766862
v 0.01179999578744173 0.006179760675877337 -0.011656687594950206
v 0.004799996968358755 0.008744204416871076 -0.01331147179007531
v 0.01179999578744173 0.010137962177395828 -0.014100021682679662
v -0.012899997644126415 0.086649239063263 -0.02797472663223745
v -0.012200000695884228 0.08770433813333517 -0.027439231052994745
v -0.012200000695884228 0.08755041658878332 -0.02977524884045126
v -0.012899997644126415 0.08660510927438742 -0.02826842479407789
v -0.012899997644126415 0.086649239063263 -0.02797472663223745
v -0.012200000695884228 0.08755041658878332 -0.02977524884045126
v -0.013700003735721111 0.0842431709170342 -0.02846727333962919
v -0.012899997644126415 0.086649239063263 -0.02797472663223745
v -0.012899997644126415 0.08660510927438742 -0.02826842479407789
v -0.012200000695884228 0.08475361019372946 -0.0334175266325474
v -0.013700003735721111 0.08278543502092367 -0.030498284846544287
v -0.013700003735721111 0.08378641307353979 -0.02967807836830618
v -0.013700003735721111 0.08278543502092367 -0.030498284846544287
v -0.012200000695884228 0.08475361019372946 -0.0334175266325474
v -0.012200000695884228 0.08253651857376104 -0.03416928276419642
v -0.013700003735721111 0.08278543502092367 -0.030498284846544287
v -0.012200000695884228 0.08253651857376104 -0.03416928276419642
v -0.013700003735721111 0.0815084725618363 -0.03070811927318575
v -0.01374999713152647 0.0010300395078957087 -0.00227794097736478
v -0.013700003735721111 0.08278543502092367 -0.030498284846544287
v -0.013700003735721111 0.0815084725618363 -0.03070811927318575
v -0.013700003735721111 0.08378641307353979 -0.02967807836830618
v -0.013700003735721111 0.08278543502092367 -0.030498284846544287
v -0.01374999713152647 0.0010300395078957087 -0.00227794097736478
v -0.01284999679774046 -0.004888569470494989 0.0003344864526297899
v -0.01374999713152647 -0.0024877735413610953 0.0002469288592692466
v -0.01284999679774046 -0.0048485212028026616 -0.0007084113894961779
v -0.01284999679774046 -0.0048485212028026616 -0.0007084113894961779
v -0.01374999713152647 -0.0024877735413610953 0.0002469288592692466
v -0.01374999713152647 -0.002277942141517998 -0.001030041370540858
v -0.01284999679774046 -0.004614661447703842 0.0016476974124088894
v -0.01374999713152647 -0.0020310136023908867 0.001457733567804099
v -0.01374999713152647 -0.0024877735413610953 0.0002469288592692466
v -0.01284999679774046 -0.004888569470494989 0.0003344864526297899
v -0.012200000695884228 -0.00585733121261001 0.0013006505323573956
v -0.01284999679774046 -0.004858938511461023 0.0006330189644359057
v -0.01284999679774046 -0.004614661447703842 0.0016476974124088894
v -0.01284999679774046 -0.004858938511461023 0.0006330189644359057
v -0.012200000695884228 -0.00585733121261001 0.0013006505323573956
v -0.01284999679774046 -0.004858938511461023 0.0006330189644359057
v -0.01374999713152647 -0.0024877735413610953 0.0002469288592692466
v -0.01284999679774046 -0.004888569470494989 0.0003344864526297899
v -0.01374999713152647 -0.0024877735413610953 0.0002469288592692466
v -0.01284999679774046 -0.004858938511461023 0.0006330189644359057
v -0.01284999679774046 -0.004614661447703842 0.0016476974124088894
v -0.01284999679774046 -0.004614661447703842 0.0016476974124088894
v -0.012200000695884228 -0.0049137296155095135 0.0034431463573128007
v -0.01284999679774046 -0.004461388103663924 0.001902086543850602
v -0.01284999679774046 -0.004614661447703842 0.0016476974124088894
v -0.01284999679774046 -0.004461388103663924 0.001902086543850602
v -0.01374999713152647 -0.0020310136023908867 0.001457733567804099
v -0.012200000695884228 -0.0032220601569861195 0.00506145786494017
v -0.01284999679774046 -0.004461388103663924 0.001902086543850602
v -0.012200000695884228 -0.0049137296155095135 0.0034431463573128007
v -0.01374999713152647 -0.0020310136023908867 0.001457733567804099
v -0.01284999679774046 -0.004461388103663924 0.001902086543850602
v -0.012200000695884228 -0.0032220601569861195 0.00506145786494017
v -0.012200000695884228 0.010137962177395828 -0.014100021682679662
v 0.0043705604039132595 0.010142863728106029 -0.014102615416049966
v 0.01179999578744173 0.010137962177395828 -0.014100021682679662
v 0.0043705604039132595 0.010142863728106029 -0.014102615416049966
v 0.0038634289521723986 0.010733202099800117 -0.014414798468351375
v 0.01179999578744173 0.010137962177395828 -0.014100021682679662
v -0.004262740258127451 0.010733821429312236 -0.014415116980671893
v 0.0038634289521723986 0.010733202099800117 -0.014414798468351375
v -0.012200000695884228 0.010137962177395828 -0.014100021682679662
v -0.012200000695884228 0.010137962177395828 -0.014100021682679662
v 0.0038634289521723986 0.010733202099800117 -0.014414798468351375
v 0.0043705604039132595 0.010142863728106029 -0.014102615416049966
v 0.002427977742627263 0.011480906046926982 -0.014792303554713736
v -0.0032245840411633253 0.011358801275491721 -0.014731991104781638
v -0.001999999163672328 0.011579957790672786 -0.014840847812592994
v -0.0032245840411633253 0.011358801275491721 -0.014731991104781638
v -0.004262740258127451 0.010733821429312236 -0.014415116980671893
v -0.012200000695884228 0.010137962177395828 -0.014100021682679662
v -0.001999999163672328 0.011579957790672786 -0.014840847812592994
v -0.0032245840411633253 0.011358801275491721 -0.014731991104781638
v -0.012200000695884228 0.014353055506944667 -0.01606731489300729
v -0.012200000695884228 0.014353055506944667 -0.01606731489300729
v -0.0032245840411633253 0.011358801275491721 -0.014731991104781638
v -0.012200000695884228 0.010137962177395828 -0.014100021682679662
v -0.012200000695884228 0.08770433813333517 -0.027439231052994745
v -0.012899997644126415 0.08639924228191381 -0.02665675804018976
v -0.012200000695884228 0.08695258200168615 -0.025222130119800585
v -0.012200000695884228 0.08695258200168615 -0.025222130119800585
v -0.012899997644126415 0.08639924228191381 -0.02665675804018976
v -0.012899997644126415 0.08596276491880422 -0.025708744302392023
v -0.013700003735721111 0.08403334021568304 -0.027190303429961222
v -0.012899997644126415 0.08596276491880422 -0.025708744302392023
v -0.012899997644126415 0.08639924228191381 -0.02665675804018976
v -0.0032245840411633253 0.011358801275491721 -0.014731991104781638
v 0.002427977742627263 0.011480906046926982 -0.014792303554713736
v 0.003199999453499913 0.011191305704414851 -0.01464841514825822
v 0.002427977742627263 0.011480906046926982 -0.014792303554713736
v 0.01179999578744173 0.010137962177395828 -0.014100021682679662
v 0.003199999453499913 0.011191305704414851 -0.01464841514825822
v 0.0038634289521723986 0.010733202099800117 -0.014414798468351375
v 0.003199999453499913 0.011191305704414851 -0.01464841514825822
v 0.01179999578744173 0.010137962177395828 -0.014100021682679662
v 0.003199999453499913 0.011191305704414851 -0.01464841514825822
v 0.0038634289521723986 0.010733202099800117 -0.014414798468351375
v -0.004262740258127451 0.010733821429312236 -0.014415116980671893
v -0.0032245840411633253 0.011358801275491721 -0.014731991104781638
v 0.003199999453499913 0.011191305704414851 -0.01464841514825822
v -0.004262740258127451 0.010733821429312236 -0.014415116980671893
v -0.012899997644126415 0.086649239063263 -0.02797472663223745
v -0.012899997644126415 0.0864862129092217 -0.02694386988878252
v -0.012200000695884228 0.08770433813333517 -0.027439231052994745
v -0.012899997644126415 0.08639924228191381 -0.02665675804018976
v -0.012200000695884228 0.08770433813333517 -0.027439231052994745
v -0.012899997644126415 0.0864862129092217 -0.02694386988878252
v -0.012899997644126415 0.08639924228191381 -0.02665675804018976
v -0.012899997644126415 0.0864862129092217 -0.02694386988878252
v -0.013700003735721111 0.08403334021568304 -0.027190303429961222
v -0.013700003735721111 0.08403334021568304 -0.027190303429961222
v -0.012899997644126415 0.0864862129092217 -0.02694386988878252
v -0.013700003735721111 0.0842431709170342 -0.02846727333962919
v -0.012899997644126415 0.086649239063263 -0.02797472663223745
v -0.013700003735721111 0.0842431709170342 -0.02846727333962919
v -0.012899997644126415 0.0864862129092217 -0.02694386988878252
v -0.012200000695884228 0.0013006514636799702 0.00585733121261001
v 0.01179999578744173 0.0013006514636799702 0.00585733121261001
v -0.012200000695884228 0.08331030607223516 -0.022425323724746718
v -0.012200000695884228 0.08331030607223516 -0.022425323724746718
v 0.01179999578744173 0.0013006514636799702 0.00585733121261001
v 0.01179999578744173 0.08331030607223516 -0.022425323724746718
v 0.01179999578744173 0.0013006514636799702 0.00585733121261001
v -0.012200000695884228 0.0013006514636799702 0.00585733121261001
v -0.012200000695884228 -0.0010398620506748564 0.0059092054143548055
v 0.01179999578744173 0.0013006514636799702 0.00585733121261001
v -0.012200000695884228 -0.0010398620506748564 0.0059092054143548055
v 0.01179999578744173 -0.0010398620506748564 0.0059092054143548055
v -0.012200000695884228 -0.0049137296155095135 0.0034431463573128007
v 0.01179999578744173 -0.0049137296155095135 0.0034431463573128007
v 0.01179999578744173 -0.0032220601569861195 0.00506145786494017
v -0.012200000695884228 -0.0049137296155095135 0.0034431463573128007
v 0.01179999578744173 -0.0032220601569861195 0.00506145786494017
v -0.012200000695884228 -0.0032220601569861195 0.00506145786494017
v -0.012200000695884228 -0.0010398620506748564 0.0059092054143548055
v 0.01179999578744173 -0.0032220601569861195 0.00506145786494017
v 0.01179999578744173 -0.0010398620506748564 0.0059092054143548055
v 0.01179999578744173 -0.0032220601569861195 0.00506145786494017
v -0.012200000695884228 -0.0010398620506748564 0.0059092054143548055
v -0.012200000695884228 -0.0032220601569861195 0.00506145786494017
v -0.012200000695884228 -0.00585733121261001 0.0013006505323573956
v -0.012200000695884228 -0.0059092054143548055 -0.0010398591402918107
v 0.01179999578744173 -0.0059092054143548055 -0.0010398591402918107
v 0.01179999578744173 -0.00585733121261001 0.0013006505323573956
v -0.012200000695884228 -0.00585733121261001 0.0013006505323573956
v 0.01179999578744173 -0.0059092054143548055 -0.0010398591402918107
v 0.01179999578744173 -0.00585733121261001 0.0013006505323573956
v 0.01179999578744173 -0.0049137296155095135 0.0034431463573128007
v -0.012200000695884228 -0.00585733121261001 0.0013006505323573956
v -0.012200000695884228 -0.0049137296155095135 0.0034431463573128007
v -0.012200000695884228 -0.00585733121261001 0.0013006505323573956
v 0.01179999578744173 -0.0049137296155095135 0.0034431463573128007
v 0.007300002034753561 0.06494026631116871 -0.029920781031250974
v 0.01179999578744173 0.018768036738038077 -0.01753196492791177
v -0.012200000695884228 0.018768036738038077 -0.01753196492791177
v -0.007699998561292887 0.06494026631116871 -0.029920781031250974
v 0.007300002034753561 0.06494026631116871 -0.029920781031250974
v -0.012200000695884228 0.018768036738038077 -0.01753196492791177
v 0.007300002034753561 0.06494026631116871 -0.029920781031250974
v -0.007699998561292887 0.06494026631116871 -0.029920781031250974
v -0.012200000695884228 0.08020050078630453 -0.034015364944934866
v 0.007300002034753561 0.06494026631116871 -0.029920781031250974
v -0.012200000695884228 0.08020050078630453 -0.034015364944934866
v 0.01179999578744173 0.08020050078630453 -0.034015364944934866
v -0.012200000695884228 -0.0059092054143548055 -0.0010398591402918107
v 0.01179999578744173 -0.0050614541396498715 -0.0032220594584941886
v 0.01179999578744173 -0.0059092054143548055 -0.0010398591402918107
v -0.012200000695884228 -0.0050614541396498715 -0.0032220594584941886
v 0.01179999578744173 -0.0050614541396498715 -0.0032220594584941886
v -0.012200000695884228 -0.0059092054143548055 -0.0010398591402918107
v 0.01179999578744173 -0.0034431484527885936 -0.004913730081170801
v 0.01179999578744173 -0.0050614541396498715 -0.0032220594584941886
v -0.012200000695884228 -0.0034431484527885936 -0.004913730081170801
v -0.012200000695884228 -0.0034431484527885936 -0.004913730081170801
v 0.01179999578744173 -0.0050614541396498715 -0.0032220594584941886
v -0.012200000695884228 -0.0050614541396498715 -0.0032220594584941886
v 0.01179999578744173 0.018768036738038077 -0.01753196492791177
v 0.01179999578744173 0.014353055506944667 -0.01606731489300729
v -0.012200000695884228 0.018768036738038077 -0.01753196492791177
v 0.01179999578744173 0.014353055506944667 -0.01606731489300729
v -0.012200000695884228 0.014353055506944667 -0.01606731489300729
v -0.012200000695884228 0.018768036738038077 -0.01753196492791177
v 0.01179999578744173 -0.0034431484527885936 -0.004913730081170801
v -0.012200000695884228 -0.0034431484527885936 -0.004913730081170801
v -0.012200000695884228 0.006179760675877337 -0.011656687594950206
v 0.01179999578744173 0.006179760675877337 -0.011656687594950206
v 0.01179999578744173 -0.0034431484527885936 -0.004913730081170801
v -0.012200000695884228 0.006179760675877337 -0.011656687594950206
v 0.01179999578744173 0.08331030607223516 -0.022425323724746718
v -0.012200000695884228 0.08540961146354681 -0.023461479693651217
v -0.012200000695884228 0.08331030607223516 -0.022425323724746718
v 0.01179999578744173 0.08540961146354681 -0.023461479693651217
v -0.012200000695884228 0.08540961146354681 -0.023461479693651217
v 0.01179999578744173 0.08331030607223516 -0.022425323724746718
v -0.012200000695884228 0.08540961146354681 -0.023461479693651217
v 0.01179999578744173 0.08540961146354681 -0.023461479693651217
v 0.01179999578744173 0.08695258200168615 -0.025222130119800585
v -0.012200000695884228 0.08540961146354681 -0.023461479693651217
v 0.01179999578744173 0.08695258200168615 -0.025222130119800585
v -0.012200000695884228 0.08695258200168615 -0.025222130119800585
v 0.01179999578744173 0.08695258200168615 -0.025222130119800585
v -0.012200000695884228 0.08770433813333517 -0.027439231052994745
v -0.012200000695884228 0.08695258200168615 -0.025222130119800585
v 0.01179999578744173 0.08695258200168615 -0.025222130119800585
v 0.01179999578744173 0.08770433813333517 -0.027439231052994745
v -0.012200000695884228 0.08770433813333517 -0.027439231052994745
v -0.012200000695884228 0.08020050078630453 -0.034015364944934866
v 0.01179999578744173 0.08253651857376104 -0.03416928276419642
v 0.01179999578744173 0.08020050078630453 -0.034015364944934866
v 0.01179999578744173 0.08253651857376104 -0.03416928276419642
v -0.012200000695884228 0.08020050078630453 -0.034015364944934866
v -0.012200000695884228 0.08253651857376104 -0.03416928276419642
v -0.012200000695884228 0.08475361019372946 -0.0334175266325474
v 0.01179999578744173 0.08253651857376104 -0.03416928276419642
v -0.012200000695884228 0.08253651857376104 -0.03416928276419642
v 0.01179999578744173 0.08253651857376104 -0.03416928276419642
v -0.012200000695884228 0.08475361019372946 -0.0334175266325474
v 0.01179999578744173 0.08475361019372946 -0.0334175266325474
v -0.012200000695884228 0.08651426434516912 -0.03187454864382746
v 0.01179999578744173 0.08651426434516912 -0.03187454864382746
v -0.012200000695884228 0.08475361019372946 -0.0334175266325474
v 0.01179999578744173 0.08475361019372946 -0.0334175266325474
v -0.012200000695884228 0.08475361019372946 -0.0334175266325474
v 0.01179999578744173 0.08651426434516912 -0.03187454864382746
v -0.012200000695884228 0.08770433813333517 -0.027439231052994745
v 0.01179999578744173 0.08770433813333517 -0.027439231052994745
v 0.01179999578744173 0.08755041658878332 -0.02977524884045126
v -0.012200000695884228 0.08770433813333517 -0.027439231052994745
v 0.01179999578744173 0.08755041658878332 -0.02977524884045126
v -0.012200000695884228 0.08755041658878332 -0.02977524884045126
v -0.012200000695884228 0.08651426434516912 -0.03187454864382746
v 0.01179999578744173 0.08755041658878332 -0.02977524884045126
v 0.01179999578744173 0.08651426434516912 -0.03187454864382746
v -0.012200000695884228 0.08651426434516912 -0.03187454864382746
v -0.012200000695884228 0.08755041658878332 -0.02977524884045126
v 0.01179999578744173 0.08755041658878332 -0.02977524884045126
v 0.013300006277859211 0.08278543502092367 -0.030498284846544287
v 0.013300006277859211 0.08378641307353979 -0.02967807836830618
v 0.013300006277859211 0.07926762849092489 -0.027973415330052393
v 0.013300006277859211 0.08321312814950949 -0.0261893328279257
v 0.013300006277859211 0.0820023268461228 -0.025732569396495836
v 0.013300006277859211 0.07926762849092489 -0.027973415330052393
v 0.013300006277859211 0.08072535693645483 -0.0259424038231373
v 0.013300006277859211 0.0797243863344193 -0.026762610301375406
v 0.013300006277859211 0.07926762849092489 -0.027973415330052393
v 0.013300006277859211 0.0815084725618363 -0.03070811927318575
v 0.013300006277859211 0.07926762849092489 -0.027973415330052393
v 0.013300006277859211 0.08029766380786901 -0.030251357704401037
v 0.013300006277859211 0.08321312814950949 -0.0261893328279257
v 0.013300006277859211 0.07926762849092489 -0.027973415330052393
v 0.013300006277859211 0.08403334021568304 -0.027190303429961222
v 0.013300006277859211 0.0842431709170342 -0.02846727333962919
v 0.013300006277859211 0.07926762849092489 -0.027973415330052393
v 0.013300006277859211 0.08378641307353979 -0.02967807836830618
v 0.013300006277859211 0.0842431709170342 -0.02846727333962919
v 0.013300006277859211 0.08403334021568304 -0.027190303429961222
v 0.013300006277859211 0.07926762849092489 -0.027973415330052393
v 0.013300006277859211 0.08072535693645483 -0.0259424038231373
v 0.013300006277859211 0.07926762849092489 -0.027973415330052393
v 0.013300006277859211 0.0820023268461228 -0.025732569396495836
v 0.013300006277859211 0.07947745919227606 -0.029250385239720365
v 0.013300006277859211 0.08029766380786901 -0.030251357704401037
v 0.013300006277859211 0.07926762849092489 -0.027973415330052393
v 0.013300006277859211 0.08278543502092367 -0.030498284846544287
v 0.013300006277859211 0.07926762849092489 -0.027973415330052393
v 0.013300006277859211 0.0815084725618363 -0.03070811927318575
v 0.01179999578744173 0.014353055506944667 -0.01606731489300729
v -0.001999999163672328 0.011579957790672786 -0.014840847812592994
v -0.012200000695884228 0.014353055506944667 -0.01606731489300729
v 0.0016000022878870368 0.011579957790672786 -0.014840847812592994
v -0.001999999163672328 0.011579957790672786 -0.014840847812592994
v 0.01179999578744173 0.014353055506944667 -0.01606731489300729
v -0.012200000695884228 0.006179760675877337 -0.011656687594950206
v 0.004799996968358755 0.008744204416871076 -0.01331147179007531
v 0.01179999578744173 0.006179760675877337 -0.011656687594950206
v -0.005200000945478678 0.008744204416871076 -0.01331147179007531
v 0.004799996968358755 0.008744204416871076 -0.01331147179007531
v -0.012200000695884228 0.006179760675877337 -0.011656687594950206
v -0.01374999713152647 -0.0024877735413610953 0.0002469288592692466
v -0.01374999713152647 -0.00024692917941138165 -0.0024877761024981754
v -0.01374999713152647 -0.0014577334513887772 -0.002031012671068312
v -0.01374999713152647 -0.00024692917941138165 -0.0024877761024981754
v -0.01374999713152647 -0.0024877735413610953 0.0002469288592692466
v -0.01374999713152647 0.0010300395078957087 -0.00227794097736478
v -0.01374999713152647 0.0020310124382376684 -0.0014577343827113518
v -0.01374999713152647 -0.0024877735413610953 0.0002469288592692466
v -0.01374999713152647 0.0024877726100385206 -0.0002469278697390111
v -0.01374999713152647 -0.0020310136023908867 0.001457733567804099
v -0.01374999713152647 -0.001030040672048927 0.002277940278872849
v -0.01374999713152647 -0.0024877735413610953 0.0002469288592692466
v -0.01374999713152647 0.0020310124382376684 -0.0014577343827113518
v -0.01374999713152647 0.0010300395078957087 -0.00227794097736478
v -0.01374999713152647 -0.0024877735413610953 0.0002469288592692466
v -0.01374999713152647 0.0022779412101954235 0.0010300404392182834
v -0.01374999713152647 0.0024877726100385206 -0.0002469278697390111
v -0.01374999713152647 -0.0024877735413610953 0.0002469288592692466
v -0.01374999713152647 -0.001030040672048927 0.002277940278872849
v -0.01374999713152647 0.00024692810256965475 0.0024877754040062445
v -0.01374999713152647 -0.0024877735413610953 0.0002469288592692466
v -0.01374999713152647 0.0014577324036508807 0.0020310117397457374
v -0.01374999713152647 0.0022779412101954235 0.0010300404392182834
v -0.01374999713152647 -0.0024877735413610953 0.0002469288592692466
v -0.01374999713152647 0.0014577324036508807 0.0020310117397457374
v -0.01374999713152647 -0.0024877735413610953 0.0002469288592692466
v -0.01374999713152647 0.00024692810256965475 0.0024877754040062445
v -0.01374999713152647 -0.002277942141517998 -0.001030041370540858
v -0.01374999713152647 -0.0024877735413610953 0.0002469288592692466
v -0.01374999713152647 -0.0014577334513887772 -0.002031012671068312
usemtl DefaultMaterial
f 1 2 3
f 4 5 6
f 7 8 9
f 10 11 12
f 13 14 15
f 16 17 18
f 19 20 21
f 22 23 24
f 25 26 27
f 28 29 30
f 31 32 33
f 34 35 36
f 37 38 39
f 40 41 42
f 43 44 45
f 46 47 48
f 49 50 51
f 52 53 54
f 55 56 57
f 58 59 60
f 61 62 63
f 64 65 66
f 67 68 69
f 70 71 72
f 73 74 75
f 76 77 78
f 79 80 81
f 82 83 84
f 85 86 87
f 88 89 90
f 91 92 93
f 94 95 96
f 97 98 99
f 100 101 102
f 103 104 105
f 106 107 108
f 109 110 111
f 112 113 114
f 115 116 117
f 118 119 120
f 121 122 123
f 124 125 126
f 127 128 129
f 130 131 132
f 133 134 135
f 136 137 138
f 139 140 141
f 142 143 144
f 145 146 147
f 148 149 150
f 151 152 153
f 154 155 156
f 157 158 159
f 160 161 162
f 163 164 165
f 166 167 168
f 169 170 171
f 172 173 174
f 175 176 177
f 178 179 180
f 181 182 183
f 184 185 186
f 187 188 189
f 190 191 192
f 193 194 195
f 196 197 198
f 199 200 201
f 202 203 204
f 205 206 207
f 208 209 210
f 211 212 213
f 214 215 216
f 217 218 219
f 220 221 222
f 223 224 225
f 226 227 228
f 229 230 231
f 232 233 234
f 235 236 237
f 238 239 240
f 241 242 243
f 244 245 246
f 247 248 249
f 250 251 252
f 253 254 255
f 256 257 258
f 259 260 261
f 262 263 264
f 265 266 267
f 268 269 270
f 271 272 273
f 274 275 276
f 277 278 279
f 280 281 282
f 283 284 285
f 286 287 288
f 289 290 291
f 292 293 294
f 295 296 297
f 298 299 300
f 301 302 303
f 304 305 306
f 307 308 309
f 310 311 312
f 313 314 315
f 316 317 318
f 319 320 321
f 322 323 324
f 325 326 327
f 328 329 330
f 331 332 333
f 334 335 336
f 337 338 339
f 340 341 342
f 343 344 345
f 346 347 348
f 349 350 351
f 352 353 354
f 355 356 357
f 358 359 360
f 361 362 363
f 364 365 366
f 367 368 369
f 370 371 372
f 373 374 375
f 376 377 378
f 379 380 381
f 382 383 384
f 385 386 387
f 388 389 390
f 391 392 393
f 394 395 396
f 397 398 399
f 400 401 402
f 403 404 405
f 406 407 408
f 409 410 411
f 412 413 414
f 415 416 417
f 418 419 420
f 421 422 423
f 424 425 426
f 427 428 429
f 430 431 432
f 433 434 435
f 436 437 438
f 439 440 441
f 442 443 444
f 445 446 447
f 448 449 450
f 451 452 453
f 454 455 456
f 457 458 459
f 460 461 462
f 463 464 465
f 466 467 468
f 469 470 471
f 472 473 474
f 475 476 477
f 478 479 480
f 481 482 483
f 484 485 486
f 487 488 489
f 490 491 492
f 493 494 495
f 496 497 498
f 499 500 501
f 502 503 504
f 505 506 507
f 508 509 510
f 511 512 513
f 514 515 516
f 517 518 519
f 520 521 522
f 523 524 525
f 526 527 528
f 529 530 531
f 532 533 534
f 535 536 537
f 538 539 540
f 541 542 543
f 544 545 546
f 547 548 549
f 550 551 552
f 553 554 555
f 556 557 558
f 559 560 561
f 562 563 564
f 565 566 567
f 568 569 570
f 571 572 573
f 574 575 576
f 577 578 579
f 580 581 582
f 583 584 585
f 586 587 588
f 589 590 591
f 592 593 594
f 595 596 597
f 598 599 600
f 601 602 603
f 604 605 606
f 607 608 609
f 610 611 612
f 613 614 615
f 616 617 618
f 619 620 621
f 622 623 624
f 625 626 627
f 628 629 630
f 631 632 633
f 634 635 636
f 637 638 639
f 640 641 642
f 643 644 645
f 646 647 648
f 649 650 651
f 652 653 654
f 655 656 657
f 658 659 660
f 661 662 663
f 664 665 666
f 667 668 669
f 670 671 672
f 673 674 675
f 676 677 678
f 679 680 681
f 682 683 684
f 685 686 687
f 688 689 690
f 691 692 693
f 694 695 696
